<svg width="430" height="120" viewBox="0 0 430 120" fill="none" xmlns="http://www.w3.org/2000/svg">
<path d="M109.52 78.0094C107.04 78.0094 104.815 77.6311 102.844 76.8745C100.873 76.1179 99.2043 75.0147 97.8372 73.5643C96.4706 72.0828 95.4216 70.2859 94.6901 68.1735C93.9591 66.0611 93.5933 63.6339 93.5933 60.8912C93.5933 58.1485 94.0068 55.7211 94.8331 53.6089C95.6914 51.4967 96.8521 49.7155 98.314 48.2654C99.7765 46.7837 101.493 45.6645 103.464 44.9079C105.435 44.1513 107.549 43.773 109.806 43.773C111.173 43.773 112.413 43.8833 113.525 44.104C114.638 44.2932 115.608 44.5139 116.434 44.7661C117.261 45.0182 117.944 45.2862 118.484 45.57C119.025 45.8537 119.407 46.0586 119.629 46.1847L117.864 51.0553C117.101 50.5825 116.005 50.1411 114.574 49.7313C113.176 49.2899 111.65 49.0692 109.997 49.0692C108.566 49.0692 107.231 49.3214 105.991 49.8259C104.751 50.2987 103.671 51.0238 102.749 52.0011C101.859 52.9784 101.159 54.2079 100.651 55.6895C100.142 57.1712 99.8876 58.8894 99.8876 60.8439C99.8876 62.578 100.078 64.1696 100.46 65.62C100.873 67.0703 101.493 68.3309 102.319 69.403C103.146 70.4433 104.195 71.2628 105.467 71.862C106.738 72.4294 108.264 72.7131 110.044 72.7131C112.174 72.7131 113.907 72.5084 115.242 72.0984C116.577 71.6572 117.61 71.2472 118.341 70.8689L119.962 75.7396C119.581 75.9916 119.056 76.2442 118.389 76.4962C117.753 76.7482 116.99 77.0008 116.1 77.2528C115.21 77.4736 114.209 77.6466 113.096 77.7729C111.984 77.9304 110.791 78.0094 109.52 78.0094ZM126.247 77.3001V41.5505L132.017 40.6047V52.8523C132.653 52.6316 133.384 52.4424 134.211 52.2848C135.069 52.1272 135.911 52.0484 136.738 52.0484C138.741 52.0484 140.393 52.3321 141.697 52.8996C143.032 53.4355 144.097 54.2079 144.892 55.2167C145.686 56.194 146.243 57.3762 146.561 58.7632C146.91 60.1502 147.085 61.6951 147.085 63.3974V77.3001H141.316V64.2959C141.316 62.9719 141.22 61.8525 141.029 60.9385C140.87 59.9927 140.584 59.2361 140.171 58.6687C139.79 58.0697 139.265 57.6441 138.598 57.3919C137.93 57.1082 137.103 56.9663 136.118 56.9663C135.355 56.9663 134.576 57.0451 133.781 57.2027C132.987 57.3604 132.399 57.5022 132.017 57.6283V77.3001H126.247ZM164.067 73.2806C165.847 73.2806 167.198 73.186 168.12 72.9969V66.6603C167.802 66.5657 167.341 66.4712 166.737 66.3766C166.133 66.282 165.466 66.2347 164.734 66.2347C164.098 66.2347 163.447 66.282 162.779 66.3766C162.143 66.4712 161.556 66.6447 161.015 66.8967C160.506 67.1488 160.093 67.5115 159.775 67.9844C159.457 68.4255 159.298 68.993 159.298 69.6867C159.298 71.0425 159.727 71.9883 160.586 72.524C161.444 73.0286 162.605 73.2806 164.067 73.2806ZM163.59 51.9538C165.497 51.9538 167.103 52.1902 168.406 52.6631C169.709 53.136 170.742 53.798 171.505 54.6492C172.3 55.5004 172.857 56.5407 173.174 57.7702C173.524 58.9681 173.699 60.292 173.699 61.7424V76.7326C172.809 76.9218 171.457 77.1426 169.646 77.3946C167.866 77.6784 165.847 77.8202 163.59 77.8202C162.096 77.8202 160.729 77.6784 159.489 77.3946C158.249 77.1109 157.184 76.6536 156.294 76.0233C155.436 75.393 154.752 74.5729 154.244 73.5643C153.767 72.5557 153.528 71.3101 153.528 69.8286C153.528 68.4099 153.799 67.2122 154.339 66.2347C154.911 65.2572 155.674 64.4695 156.628 63.8703C157.581 63.24 158.678 62.7983 159.918 62.5463C161.19 62.2625 162.509 62.1207 163.876 62.1207C164.512 62.1207 165.18 62.168 165.878 62.2625C166.578 62.3254 167.325 62.4517 168.12 62.6408V61.6951C168.12 61.0331 168.041 60.4027 167.881 59.8036C167.722 59.2046 167.436 58.6844 167.023 58.2431C166.641 57.7702 166.117 57.4076 165.449 57.1555C164.814 56.9033 164.003 56.7772 163.017 56.7772C161.682 56.7772 160.459 56.8717 159.346 57.0609C158.233 57.25 157.327 57.4707 156.628 57.7229L155.913 53.0887C156.644 52.8365 157.709 52.5843 159.107 52.3321C160.506 52.0799 162 51.9538 163.59 51.9538ZM196.266 57.7229C195.79 57.5653 195.122 57.4076 194.264 57.25C193.437 57.0609 192.468 56.9663 191.355 56.9663C190.719 56.9663 190.036 57.0293 189.305 57.1555C188.606 57.2816 188.113 57.3919 187.826 57.4865V77.3001H182.057V53.7507C183.17 53.3409 184.553 52.9626 186.205 52.6158C187.89 52.2375 189.75 52.0484 191.784 52.0484C192.166 52.0484 192.611 52.0799 193.119 52.143C193.628 52.1745 194.137 52.2375 194.645 52.3321C195.154 52.3951 195.647 52.4897 196.123 52.6158C196.6 52.7104 196.982 52.805 197.268 52.8996L196.266 57.7229ZM207.111 64.2959C207.111 66.7232 207.636 68.5045 208.685 69.6394C209.766 70.7426 211.148 71.2945 212.833 71.2945C213.755 71.2945 214.613 71.1682 215.408 70.9162C216.234 70.6642 216.902 70.3643 217.411 70.0177V57.2027C216.997 57.1082 216.489 57.0293 215.885 56.9663C215.281 56.8717 214.518 56.8244 213.596 56.8244C211.498 56.8244 209.892 57.518 208.78 58.9051C207.668 60.2609 207.111 62.0578 207.111 64.2959ZM223.18 74.7938C223.18 78.7343 222.163 81.6188 220.129 83.4475C218.126 85.2761 215.042 86.1902 210.878 86.1902C209.352 86.1902 207.858 86.0639 206.396 85.8118C204.965 85.5598 203.662 85.2288 202.486 84.8188L203.535 79.9482C204.52 80.3582 205.633 80.6892 206.873 80.9412C208.144 81.1932 209.511 81.3195 210.973 81.3195C213.294 81.3195 214.947 80.8466 215.933 79.9009C216.918 78.9551 217.411 77.5521 217.411 75.6923V74.7465C216.839 75.0302 216.076 75.314 215.122 75.5977C214.2 75.8814 213.135 76.0233 211.927 76.0233C210.338 76.0233 208.875 75.7713 207.54 75.2667C206.237 74.7621 205.108 74.0216 204.155 73.0442C203.233 72.0667 202.501 70.8533 201.961 69.403C201.452 67.9215 201.198 66.2191 201.198 64.2959C201.198 62.499 201.469 60.8439 202.009 59.3307C202.581 57.8175 203.392 56.525 204.441 55.4531C205.522 54.3812 206.825 53.5458 208.351 52.9468C209.877 52.3478 211.609 52.0484 213.548 52.0484C215.424 52.0484 217.204 52.1902 218.889 52.474C220.574 52.7577 222.004 53.0572 223.18 53.3724V74.7938ZM230.43 65.0525C230.43 62.8773 230.748 60.9702 231.384 59.3307C232.051 57.6914 232.925 56.3358 234.006 55.2639C235.087 54.1606 236.327 53.3409 237.726 52.805C239.124 52.2375 240.555 51.9538 242.017 51.9538C245.451 51.9538 248.121 53.0099 250.028 55.1221C251.968 57.2343 252.937 60.3866 252.937 64.5796C252.937 64.8951 252.921 65.2572 252.889 65.6673C252.889 66.0456 252.874 66.3921 252.842 66.7076H236.391C236.549 68.6937 237.249 70.2386 238.489 71.3418C239.76 72.4138 241.588 72.9496 243.972 72.9496C245.371 72.9496 246.643 72.8233 247.787 72.5713C248.963 72.3193 249.885 72.0511 250.553 71.7674L251.316 76.4489C250.998 76.6063 250.553 76.7799 249.981 76.969C249.44 77.1265 248.804 77.2683 248.073 77.3946C247.374 77.5521 246.611 77.6784 245.784 77.7729C244.958 77.8675 244.115 77.9148 243.257 77.9148C241.064 77.9148 239.156 77.5993 237.535 76.969C235.914 76.307 234.579 75.4085 233.53 74.2736C232.481 73.107 231.702 71.7518 231.193 70.2069C230.684 68.6308 230.43 66.9123 230.43 65.0525ZM247.167 62.499C247.167 61.7107 247.056 60.9702 246.833 60.2765C246.611 59.5514 246.277 58.9367 245.832 58.4322C245.419 57.8963 244.894 57.4865 244.258 57.2027C243.654 56.8875 242.923 56.7299 242.065 56.7299C241.175 56.7299 240.396 56.9033 239.729 57.25C239.061 57.5653 238.489 57.9909 238.012 58.5268C237.567 59.0627 237.217 59.6775 236.963 60.371C236.709 61.0648 236.534 61.7741 236.438 62.499H247.167ZM260.633 77.3001V44.5296H281.518V49.5894H266.641V57.9594H279.849V63.0191H266.641V77.3001H260.633ZM293.719 77.3001H287.95V52.5685H293.719V77.3001ZM294.339 45.3335C294.339 46.4054 293.99 47.2566 293.29 47.8871C292.591 48.5175 291.764 48.8328 290.811 48.8328C289.826 48.8328 288.983 48.5175 288.283 47.8871C287.584 47.2566 287.234 46.4054 287.234 45.3335C287.234 44.2302 287.584 43.3632 288.283 42.7327C288.983 42.1022 289.826 41.7869 290.811 41.7869C291.764 41.7869 292.591 42.1022 293.29 42.7327C293.99 43.3632 294.339 44.2302 294.339 45.3335ZM302.373 53.3724C303.485 53.0572 304.931 52.7577 306.712 52.474C308.492 52.1902 310.463 52.0484 312.625 52.0484C314.659 52.0484 316.36 52.3321 317.727 52.8996C319.094 53.4355 320.175 54.2079 320.97 55.2167C321.796 56.194 322.368 57.3919 322.686 58.8105C323.036 60.1974 323.211 61.7268 323.211 63.3974V77.3001H317.441V64.2959C317.441 62.9719 317.346 61.8525 317.155 60.9385C316.995 59.9927 316.709 59.2361 316.296 58.6687C315.915 58.0697 315.374 57.6441 314.675 57.3919C314.008 57.1082 313.181 56.9663 312.196 56.9663C311.464 56.9663 310.701 57.0136 309.907 57.1082C309.112 57.2027 308.524 57.2816 308.143 57.3446V77.3001H302.373V53.3724ZM336.088 64.8634C336.088 67.3852 336.692 69.3713 337.9 70.8216C339.108 72.2403 340.777 72.9496 342.907 72.9496C343.829 72.9496 344.607 72.9179 345.243 72.855C345.911 72.7604 346.451 72.6659 346.865 72.5713V58.3849C346.356 58.0382 345.673 57.7229 344.814 57.4392C343.987 57.1239 343.098 56.9663 342.144 56.9663C340.046 56.9663 338.504 57.6756 337.519 59.0943C336.565 60.5129 336.088 62.4361 336.088 64.8634ZM352.634 76.5434C351.49 76.89 350.043 77.2055 348.295 77.4892C346.579 77.7729 344.767 77.9148 342.859 77.9148C340.888 77.9148 339.124 77.6155 337.566 77.0163C336.008 76.4172 334.673 75.566 333.561 74.4628C332.48 73.3279 331.637 71.9721 331.034 70.396C330.461 68.7883 330.175 66.9913 330.175 65.0052C330.175 63.0509 330.414 61.2851 330.891 59.709C331.399 58.1012 332.13 56.7299 333.084 55.595C334.038 54.4601 335.198 53.5931 336.565 52.9941C337.932 52.3636 339.505 52.0484 341.286 52.0484C342.494 52.0484 343.558 52.1902 344.481 52.474C345.402 52.7577 346.197 53.073 346.865 53.4197V41.5505L352.634 40.6047V76.5434ZM359.873 65.0525C359.873 62.8773 360.191 60.9702 360.826 59.3307C361.494 57.6914 362.368 56.3358 363.449 55.2639C364.53 54.1606 365.77 53.3409 367.168 52.805C368.567 52.2375 369.998 51.9538 371.46 51.9538C374.893 51.9538 377.563 53.0099 379.471 55.1221C381.41 57.2343 382.379 60.3866 382.379 64.5796C382.379 64.8951 382.364 65.2572 382.332 65.6673C382.332 66.0456 382.316 66.3921 382.284 66.7076H365.833C365.992 68.6937 366.691 70.2386 367.931 71.3418C369.203 72.4138 371.031 72.9496 373.415 72.9496C374.814 72.9496 376.085 72.8233 377.229 72.5713C378.406 72.3193 379.327 72.0511 379.995 71.7674L380.758 76.4489C380.441 76.6063 379.995 76.7799 379.423 76.969C378.883 77.1265 378.247 77.2683 377.516 77.3946C376.817 77.5521 376.054 77.6784 375.227 77.7729C374.4 77.8675 373.558 77.9148 372.699 77.9148C370.506 77.9148 368.599 77.5993 366.977 76.969C365.356 76.307 364.021 75.4085 362.972 74.2736C361.923 73.107 361.144 71.7518 360.635 70.2069C360.127 68.6308 359.873 66.9123 359.873 65.0525ZM376.61 62.499C376.61 61.7107 376.498 60.9702 376.276 60.2765C376.054 59.5514 375.72 58.9367 375.274 58.4322C374.862 57.8963 374.337 57.4865 373.701 57.2027C373.097 56.8875 372.366 56.7299 371.507 56.7299C370.618 56.7299 369.838 56.9033 369.171 57.25C368.503 57.5653 367.931 57.9909 367.454 58.5268C367.009 59.0627 366.66 59.6775 366.405 60.371C366.151 61.0648 365.976 61.7741 365.881 62.499H376.61ZM403.999 57.7229C403.522 57.5653 402.854 57.4076 401.996 57.25C401.17 57.0609 400.2 56.9663 399.087 56.9663C398.452 56.9663 397.768 57.0293 397.037 57.1555C396.338 57.2816 395.845 57.3919 395.559 57.4865V77.3001H389.789V53.7507C390.902 53.3409 392.285 52.9626 393.937 52.6158C395.623 52.2375 397.482 52.0484 399.516 52.0484C399.898 52.0484 400.343 52.0799 400.852 52.143C401.36 52.1745 401.869 52.2375 402.377 52.3321C402.886 52.3951 403.379 52.4897 403.856 52.6158C404.332 52.7104 404.714 52.805 405 52.8996L403.999 57.7229Z" fill="white"/>
<path d="M56.6319 60.9789V53.0486H31.7856V60.9789" fill="#F1F1F2"/>
<path d="M39.8059 88H30.3749C22.7047 88 16.5581 85.5312 11.9368 80.5729C7.31435 75.6152 5 68.7389 5 60.6856C5 52.0283 7.60406 45.4032 12.8035 40.0677C18.0029 34.7323 25.3924 32 33.3334 32H59.6372V39.93H33.3334C27.6048 39.93 23.0673 41.829 19.515 45.579C15.9626 49.3292 14.2855 54.3213 14.2855 60.5875C14.2855 66.5521 15.8458 71.4164 19.1646 74.9515C22.4839 78.4877 26.8474 80.0701 32.2557 80.0701H39.8059V88Z" fill="#F1F1F2"/>
</svg>
