<?xml version="1.0" standalone="no"?><!DOCTYPE svg PUBLIC "-//W3C//DTD SVG 1.1//EN" "http://www.w3.org/Graphics/SVG/1.1/DTD/svg11.dtd"><svg t="1723987825866" class="icon" viewBox="0 0 1024 1024" version="1.1" xmlns="http://www.w3.org/2000/svg" p-id="6253" xmlns:xlink="http://www.w3.org/1999/xlink" width="200" height="200"><path d="M748.34 905.04l168.69-166.55-104.54-0.64 1.63-101.97L667 798.22h99.33zM192.61 312.2c11.56 22.92 117.85 172.72 150.16 218.09a35.364 35.364 0 0 0 28.81 14.86h0.09a35.336 35.336 0 0 0 28.83-15.02c32.2-45.74 138.09-196.63 148.96-217.56 14.28-27.48 22.13-59.48 22.13-90.1 0-110.54-89.94-200.46-200.46-200.46s-200.46 89.92-200.46 200.46c0 30.6 7.37 60.77 21.93 89.69 0.01 0.02 0.01 0.03 0.01 0.04zM371.14 92.76c71.51 0 129.71 58.19 129.71 129.71 0 19.2-5.16 40.15-14.12 57.42-6.17 11.42-59.7 89.11-115.32 168.53-51.06-72.24-108.91-155.31-115.64-168.1-9.51-18.95-14.35-38.42-14.35-57.84 0.01-71.53 58.21-129.72 129.72-129.72z" fill="#87c38f" p-id="6254"></path><path d="M312.19 222.52c0 32.56 26.4 58.96 58.96 58.96s58.96-26.4 58.96-58.96-26.4-58.96-58.96-58.96-58.96 26.4-58.96 58.96zM535.19 497.44l160.23 49.32v25.38a222.987 222.987 0 0 1 47.17-16.79v-6.15l188.67-32.83v81.41c31.21 24.49 55.84 57.01 70.75 94.42V128.18c0-10.47-4.63-20.4-12.67-27.12-7.99-6.71-18.61-9.56-28.9-7.7l-256.45 45.62-65.5-21.78c-18.68-6.22-38.58 3.87-44.75 22.41-6.15 18.54 3.87 38.56 22.41 44.73l74.02 24.61c1.72 0.57 3.48 0.99 5.25 1.29v287.17l-146.36-45.05c-12.46-3.82-25.63 3.18-29.48 15.59-3.82 12.46 3.15 25.66 15.61 29.49z m207.4-293.47l188.67-33.56v298.07l-188.67 32.84V203.97z m-174.3 603.16l-179.46-50.41V623.44c0-13.02-10.55-23.58-23.58-23.58-13.04 0-23.58 10.56-23.58 23.58v133.88l-235.84 37.01V128.18c0-19.54-15.85-35.38-35.38-35.38s-35.38 15.83-35.38 35.38v707.51c0 10.34 4.51 20.16 12.39 26.89 7.85 6.71 18.29 9.71 28.47 8.06L369 824.65l228.44 64.16c-14.72-24.78-24.86-52.42-29.15-81.68z" fill="#87c38f" p-id="6255"></path><path d="M792.01 1001.65c-122.55 0-226.03-103.51-226.03-226s103.48-226 226.03-226c124.6 0 225.96 101.4 225.96 226 0.01 122.48-103.47 226-225.96 226z m0-409.66c-103.02 0-183.66 80.71-183.66 183.76 0 102.99 80.64 183.66 183.66 183.66s183.66-80.71 183.66-183.76c0-102.98-80.64-183.66-183.66-183.66z" fill="#87c38f" p-id="6256"></path></svg>