<?xml version="1.0" standalone="no"?><!DOCTYPE svg PUBLIC "-//W3C//DTD SVG 1.1//EN" "http://www.w3.org/Graphics/SVG/1.1/DTD/svg11.dtd"><svg t="1723987694456" class="icon" viewBox="0 0 1024 1024" version="1.1" xmlns="http://www.w3.org/2000/svg" p-id="5554" xmlns:xlink="http://www.w3.org/1999/xlink" width="200" height="200"><path d="M979.968 490.496h-90.112c-4.096 0-8.192 1.024-11.776 3.072l-40.448-121.856c-12.8-69.632-61.952-102.912-122.368-102.912H333.824c-67.072 0-108.544 42.496-120.832 97.792-4.096-2.56-8.704-4.096-13.312-4.096-57.856 0-103.936-50.176-103.936-111.616S142.336 139.264 199.68 139.264h389.12c12.288 48.128 55.808 83.456 108.032 83.456h83.456c15.36 0 27.648-12.288 27.648-27.648h55.808c15.36 0 27.648-12.288 27.648-27.648 0-15.36-12.288-27.648-27.648-27.648h-55.808v-56.32h55.808c15.36 0 27.648-12.288 27.648-27.648 0-15.36-12.288-27.648-27.648-27.648h-55.808c0-15.36-12.288-27.648-27.648-27.648h-83.456C645.12 0 601.088 35.328 588.8 83.456H199.68C113.152 83.456 43.52 158.72 43.52 250.88c0 91.136 68.096 165.376 153.088 167.424l-25.088 75.776c-3.584-2.048-8.192-3.584-12.288-3.584H68.608c-13.824 0-25.088 11.264-25.088 25.088v21.504c0 13.824 11.264 25.088 25.088 25.088L102.4 568.32c-11.264 22.528-17.408 47.616-16.896 73.216l-12.8 143.872c0 4.096 0.512 8.192 1.024 12.8-0.512 2.56-1.024 5.632-1.024 8.192v173.056c0 24.576 19.968 44.544 44.544 44.544h68.096c24.576 0 44.544-19.968 44.544-44.544v-55.808h587.776v55.808c0 24.576 19.968 44.544 44.544 44.544H931.84c24.576 0 44.544-19.968 44.544-44.544v-173.568c0-2.56-0.512-5.632-1.024-8.192 0.512-4.096 1.024-8.704 1.024-12.8l-12.8-143.872c0-28.16-6.144-52.224-16.896-73.216l33.28-5.632c13.824 0 25.088-11.264 25.088-25.088v-21.504c0-13.824-11.264-25.088-25.088-25.088z m-283.136-434.688H752.64v111.616h-55.808c-29.696 0-53.76-23.04-55.808-52.736v-3.072-3.072c2.048-29.696 26.112-52.736 55.808-52.736zM241.664 464.896L271.36 385.536l0.512-2.048c3.072-15.872 9.728-18.944 19.456-31.232h466.944c9.728 12.8 15.872 15.872 18.944 31.232l30.208 81.408 11.264 44.032c-2.56 32.256-41.472 57.856-73.728 57.856h-440.32c-32.256 0-71.168-25.6-73.728-57.856l10.752-44.032z m89.6 313.856c-2.56 35.84-32.768 63.488-68.608 62.976-37.376-0.512-67.072-31.232-66.56-68.608 0.512-37.376 31.232-67.072 68.608-66.56h4.096c37.376 2.56 65.024 34.816 62.464 72.192z m310.272 12.8c0 11.264-9.216 19.968-19.968 19.968H431.104c-11.264 0-19.968-9.216-19.968-19.968v-56.32c0-11.264 9.216-19.968 19.968-19.968h190.464c11.264 0 19.968 9.216 19.968 19.968v56.32z m212.992-17.408c0 37.376-30.208 67.584-67.584 67.584-37.376 0-67.584-30.208-67.584-67.584 0-37.376 30.208-67.584 67.584-67.584 36.864-0.512 67.584 30.208 67.584 67.584z" p-id="5555" fill="#03ab1c"></path></svg>